<svg width="187" height="68" viewBox="0 0 187 68" fill="none" xmlns="http://www.w3.org/2000/svg">
<path d="M0.40799 0.800003H13.512C18.792 0.800003 23.256 1.592 26.904 3.176C30.552 4.76 33.504 6.848 35.76 9.44C38.064 11.984 39.72 14.864 40.728 18.08C41.784 21.248 42.312 24.416 42.312 27.584C42.312 31.472 41.616 35 40.224 38.168C38.832 41.288 36.936 43.952 34.536 46.16C32.136 48.368 29.352 50.072 26.184 51.272C23.016 52.424 19.656 53 16.104 53H0.40799V0.800003ZM14.952 45.512C17.736 45.512 20.304 45.104 22.656 44.288C25.056 43.472 27.12 42.296 28.848 40.76C30.624 39.176 31.992 37.256 32.952 35C33.96 32.696 34.464 30.056 34.464 27.08C34.464 23.912 33.912 21.152 32.808 18.8C31.704 16.448 30.264 14.504 28.488 12.968C26.712 11.384 24.696 10.232 22.44 9.512C20.232 8.744 17.976 8.36 15.672 8.36H8.25599V45.512H14.952Z" fill="#FFC940"/>
<path d="M46.4351 38.24C46.4351 36.032 46.8431 33.968 47.6591 32.048C48.5231 30.08 49.6751 28.376 51.1151 26.936C52.5551 25.448 54.2111 24.272 56.0831 23.408C58.0031 22.544 60.0431 22.112 62.2031 22.112C63.6431 22.112 64.9631 22.304 66.1631 22.688C67.3631 23.024 68.3951 23.456 69.2591 23.984C70.1231 24.512 70.8191 25.064 71.3471 25.64C71.8751 26.216 72.2351 26.72 72.4271 27.152L72.7151 22.904H78.6191V53H72.4271V49.184C72.1871 49.568 71.8031 50.024 71.2751 50.552C70.7471 51.08 70.0511 51.584 69.1871 52.064C68.3711 52.496 67.3871 52.88 66.2351 53.216C65.0831 53.552 63.7631 53.72 62.2751 53.72C59.9711 53.72 57.8351 53.312 55.8671 52.496C53.9471 51.632 52.2911 50.504 50.8991 49.112C49.5071 47.672 48.4031 46.016 47.5871 44.144C46.8191 42.272 46.4351 40.304 46.4351 38.24ZM52.6271 37.88C52.6271 39.272 52.8671 40.568 53.3471 41.768C53.8751 42.968 54.5711 44 55.4351 44.864C56.2991 45.728 57.3311 46.424 58.5311 46.952C59.7311 47.432 61.0511 47.672 62.4911 47.672C63.9311 47.672 65.2511 47.432 66.4511 46.952C67.6991 46.424 68.7551 45.728 69.6191 44.864C70.5311 43.952 71.2271 42.92 71.7071 41.768C72.1871 40.568 72.4271 39.272 72.4271 37.88C72.4271 36.488 72.1871 35.216 71.7071 34.064C71.2271 32.864 70.5311 31.832 69.6191 30.968C68.7551 30.104 67.6991 29.432 66.4511 28.952C65.2511 28.424 63.9311 28.16 62.4911 28.16C61.0511 28.16 59.7311 28.424 58.5311 28.952C57.3311 29.432 56.2991 30.104 55.4351 30.968C54.5711 31.832 53.8751 32.864 53.3471 34.064C52.8671 35.216 52.6271 36.488 52.6271 37.88Z" fill="#FFC940"/>
<path d="M88.7908 0.800003H101.895C107.175 0.800003 111.639 1.592 115.287 3.176C118.935 4.76 121.887 6.848 124.143 9.44C126.447 11.984 128.103 14.864 129.111 18.08C130.167 21.248 130.695 24.416 130.695 27.584C130.695 31.472 129.999 35 128.607 38.168C127.215 41.288 125.319 43.952 122.919 46.16C120.519 48.368 117.735 50.072 114.567 51.272C111.399 52.424 108.039 53 104.487 53H88.7908V0.800003ZM103.335 45.512C106.119 45.512 108.687 45.104 111.039 44.288C113.439 43.472 115.503 42.296 117.231 40.76C119.007 39.176 120.375 37.256 121.335 35C122.343 32.696 122.847 30.056 122.847 27.08C122.847 23.912 122.295 21.152 121.191 18.8C120.087 16.448 118.647 14.504 116.871 12.968C115.095 11.384 113.079 10.232 110.823 9.512C108.615 8.744 106.359 8.36 104.055 8.36H96.6388V45.512H103.335Z" fill="#FFC940"/>
<path d="M137.458 48.968C137.458 47.816 137.866 46.856 138.682 46.088C139.546 45.272 140.506 44.864 141.562 44.864C142.522 44.864 143.41 45.272 144.226 46.088C145.09 46.856 145.522 47.816 145.522 48.968C145.522 50.216 145.09 51.2 144.226 51.92C143.41 52.64 142.522 53 141.562 53C140.506 53 139.546 52.64 138.682 51.92C137.866 51.2 137.458 50.216 137.458 48.968Z" fill="#FFC940"/>
<path d="M153.639 67.544L149.319 62.936C150.711 61.832 151.791 60.44 152.559 58.76C153.327 57.128 153.711 55.16 153.711 52.856V22.904H159.831V53.072C159.831 56.336 159.279 59.168 158.175 61.568C157.071 63.968 155.559 65.96 153.639 67.544ZM153.063 11.384C153.063 10.232 153.471 9.272 154.287 8.504C155.103 7.736 156.015 7.35201 157.023 7.35201C157.983 7.35201 158.871 7.736 159.687 8.504C160.503 9.272 160.911 10.232 160.911 11.384C160.911 12.536 160.503 13.496 159.687 14.264C158.871 14.984 157.983 15.344 157.023 15.344C156.015 15.344 155.103 14.984 154.287 14.264C153.471 13.496 153.063 12.536 153.063 11.384Z" fill="#FFC940"/>
<path d="M185.252 25.568L182.012 29.888C181.964 29.84 181.796 29.72 181.508 29.528C181.22 29.336 180.836 29.144 180.356 28.952C179.924 28.76 179.396 28.592 178.772 28.448C178.196 28.256 177.596 28.16 176.972 28.16C176.156 28.16 175.34 28.352 174.524 28.736C173.756 29.12 173.372 29.84 173.372 30.896C173.372 31.808 173.684 32.552 174.308 33.128C174.98 33.704 175.796 34.232 176.756 34.712C177.716 35.144 178.748 35.6 179.852 36.08C181.004 36.56 182.06 37.16 183.02 37.88C183.98 38.552 184.772 39.416 185.396 40.472C186.068 41.48 186.404 42.776 186.404 44.36C186.404 47.048 185.468 49.28 183.596 51.056C181.772 52.784 179.252 53.648 176.036 53.648C174.164 53.648 172.316 53.336 170.492 52.712C168.716 52.04 167.276 51.08 166.172 49.832C166.508 49.496 166.868 49.064 167.252 48.536C167.684 48.008 168.092 47.504 168.476 47.024C168.908 46.544 169.244 46.16 169.484 45.872C169.772 45.536 169.94 45.368 169.988 45.368C169.988 45.416 170.156 45.56 170.492 45.8C170.876 46.04 171.356 46.304 171.932 46.592C172.508 46.832 173.156 47.072 173.876 47.312C174.596 47.504 175.316 47.6 176.036 47.6C177.188 47.6 178.172 47.312 178.988 46.736C179.804 46.16 180.212 45.392 180.212 44.432C180.212 43.568 179.876 42.896 179.204 42.416C178.58 41.888 177.788 41.408 176.828 40.976C175.868 40.544 174.812 40.112 173.66 39.68C172.508 39.2 171.452 38.6 170.492 37.88C169.532 37.16 168.716 36.272 168.044 35.216C167.42 34.112 167.108 32.696 167.108 30.968C167.108 29.336 167.396 27.968 167.972 26.864C168.596 25.76 169.364 24.872 170.276 24.2C171.236 23.48 172.292 22.976 173.444 22.688C174.596 22.352 175.7 22.184 176.756 22.184C178.148 22.184 179.636 22.472 181.22 23.048C182.804 23.624 184.148 24.464 185.252 25.568Z" fill="#FFC940"/>
</svg>
